<svg version="1.1" xmlns="http://www.w3.org/2000/svg" viewBox="0 0 1043.3333435058594 608.3333435058594" width="1043.3333435058594" height="608.3333435058594">
  <!-- svg-source:excalidraw -->
  
  <defs>
    <style class="style-fonts">
      @font-face {
        font-family: "Virgil";
        src: url("https://excalidraw.com/Virgil.woff2");
      }
      @font-face {
        font-family: "Cascadia";
        src: url("https://excalidraw.com/Cascadia.woff2");
      }
    </style>
  </defs>
  <rect x="0" y="0" width="1043.3333435058594" height="608.3333435058594" fill="#ffffff"></rect><g stroke-linecap="round" transform="translate(494.1666564941406 16.500038146972656) rotate(0 35 17.5)"><path d="M8.75 0 M8.75 0 C21.36 -0.32, 37.89 -1.18, 61.25 0 M8.75 0 C21.92 1.23, 36.07 0.11, 61.25 0 M61.25 0 C65.12 -0.49, 71.48 3.92, 70 8.75 M61.25 0 C65.31 -1.51, 70.98 4.45, 70 8.75 M70 8.75 C68.61 13.91, 70.99 16.17, 70 26.25 M70 8.75 C70.72 14.86, 70.14 19.99, 70 26.25 M70 26.25 C69.18 33.57, 69.07 33.4, 61.25 35 M70 26.25 C72.03 32.27, 65.77 32.78, 61.25 35 M61.25 35 C41.3 33.54, 19.91 34.94, 8.75 35 M61.25 35 C49.98 34.49, 39.08 34.69, 8.75 35 M8.75 35 C3.27 34.14, -1.05 32.47, 0 26.25 M8.75 35 C1.58 37.19, 0.02 33.58, 0 26.25 M0 26.25 C-1.34 23.58, -1.28 19.06, 0 8.75 M0 26.25 C0.65 20.93, -0.45 15.9, 0 8.75 M0 8.75 C1.58 2.05, 2.49 -0.38, 8.75 0 M0 8.75 C1.35 1.18, 1.98 1.71, 8.75 0" stroke="#000000" stroke-width="1" fill="none"></path></g><g transform="translate(524.1666564941406 21.500038146972656) rotate(0 5 12.5)"><text x="5" y="18" font-family="Virgil, Segoe UI Emoji" font-size="20px" fill="#000000" text-anchor="middle" style="white-space: pre;" direction="ltr">n</text></g><g stroke-linecap="round" transform="translate(363.3333435058594 87.33338928222656) rotate(0 35 17.5)"><path d="M8.75 0 M8.75 0 C25.69 -2.09, 44.72 -0.6, 61.25 0 M8.75 0 C26.41 -0.14, 46.1 0.21, 61.25 0 M61.25 0 C68.21 0.34, 69.19 3.61, 70 8.75 M61.25 0 C67.47 -0.32, 68.42 0.67, 70 8.75 M70 8.75 C70.9 13.29, 71.55 15.27, 70 26.25 M70 8.75 C70.64 15.72, 70.36 20.95, 70 26.25 M70 26.25 C71.65 32.04, 67.24 35.03, 61.25 35 M70 26.25 C71.64 34.08, 67.94 34.88, 61.25 35 M61.25 35 C46.16 36.65, 30.87 34.21, 8.75 35 M61.25 35 C45.98 35.67, 31.62 33.85, 8.75 35 M8.75 35 C2.81 35.11, 0.4 30.55, 0 26.25 M8.75 35 C2.81 35.77, 0.42 32.47, 0 26.25 M0 26.25 C-0.51 21.05, -0.36 19.94, 0 8.75 M0 26.25 C-0.1 22.05, 0.49 19.05, 0 8.75 M0 8.75 C-0.2 4.87, 4.8 -0.91, 8.75 0 M0 8.75 C-1.23 3.35, 3.93 -1.29, 8.75 0" stroke="#000000" stroke-width="1" fill="none"></path></g><g transform="translate(380.8333435058594 92.33338928222656) rotate(0 17.5 12.5)"><text x="17.5" y="18" font-family="Virgil, Segoe UI Emoji" font-size="20px" fill="#000000" text-anchor="middle" style="white-space: pre;" direction="ltr">n/2</text></g><g stroke-linecap="round" transform="translate(615.6665954589844 80.16670227050781) rotate(0 35 17.5)"><path d="M8.75 0 M8.75 0 C27.61 -0.66, 49.15 1.93, 61.25 0 M8.75 0 C26.72 -0.73, 46 -0.79, 61.25 0 M61.25 0 C68.66 -0.84, 68.79 1.46, 70 8.75 M61.25 0 C66.69 -1.46, 71.77 2.07, 70 8.75 M70 8.75 C70.73 17.2, 69.76 21.85, 70 26.25 M70 8.75 C70.12 13.79, 69.33 17.11, 70 26.25 M70 26.25 C70.12 33.83, 68.12 35.13, 61.25 35 M70 26.25 C70.95 32.07, 65.99 32.96, 61.25 35 M61.25 35 C41.98 33.89, 23.28 36.74, 8.75 35 M61.25 35 C42.77 35.35, 23.53 34.36, 8.75 35 M8.75 35 C3.77 36.55, -1.19 30.41, 0 26.25 M8.75 35 C0.71 34.07, 1.2 31.86, 0 26.25 M0 26.25 C1.58 18.41, -1.56 13.53, 0 8.75 M0 26.25 C-0.14 19.8, 0.4 14.02, 0 8.75 M0 8.75 C-0.8 1.24, 4.34 -1.98, 8.75 0 M0 8.75 C1.76 4.65, 4.43 0.67, 8.75 0" stroke="#000000" stroke-width="1" fill="none"></path></g><g transform="translate(633.1665954589844 85.16670227050781) rotate(0 17.5 12.5)"><text x="17.5" y="18" font-family="Virgil, Segoe UI Emoji" font-size="20px" fill="#000000" text-anchor="middle" style="white-space: pre;" direction="ltr">n/2</text></g><g stroke-linecap="round" transform="translate(272.5000305175781 170.66665649414062) rotate(0 35 17.5)"><path d="M8.75 0 M8.75 0 C19.85 1.9, 30.41 1.72, 61.25 0 M8.75 0 C20.98 0.6, 34.99 0.16, 61.25 0 M61.25 0 C69.05 -1.42, 70.21 1.13, 70 8.75 M61.25 0 C66.24 0.91, 71.95 1.18, 70 8.75 M70 8.75 C70.25 12.24, 68.7 19.72, 70 26.25 M70 8.75 C69.3 13.82, 69.56 21.1, 70 26.25 M70 26.25 C70.39 32.88, 67.42 34.62, 61.25 35 M70 26.25 C71.39 31.05, 65.82 34.59, 61.25 35 M61.25 35 C42.58 34, 26.84 32.7, 8.75 35 M61.25 35 C50.33 34.6, 39.75 35.11, 8.75 35 M8.75 35 C3.13 36.68, 0.99 32.67, 0 26.25 M8.75 35 C3.4 34.36, 0.39 32.4, 0 26.25 M0 26.25 C1.47 22.12, 1.15 17.53, 0 8.75 M0 26.25 C0.33 18.93, 0.35 11.99, 0 8.75 M0 8.75 C-0.71 3.89, 2.97 1.89, 8.75 0 M0 8.75 C1.94 1.49, 3.58 0.66, 8.75 0" stroke="#000000" stroke-width="1" fill="none"></path></g><g transform="translate(291.0000305175781 175.66665649414062) rotate(0 16.5 12.5)"><text x="16.5" y="18" font-family="Virgil, Segoe UI Emoji" font-size="20px" fill="#000000" text-anchor="middle" style="white-space: pre;" direction="ltr">n/4</text></g><g stroke-linecap="round" transform="translate(439.6665954589844 169.3333740234375) rotate(0 35 17.5)"><path d="M8.75 0 M8.75 0 C21.51 1.73, 34.83 0.64, 61.25 0 M8.75 0 C25.74 -0.2, 42.74 0.2, 61.25 0 M61.25 0 C68.82 1.05, 71.37 4.49, 70 8.75 M61.25 0 C69.03 -2.04, 72.22 3.37, 70 8.75 M70 8.75 C69.42 13.68, 70.09 18.57, 70 26.25 M70 8.75 C70.14 15.56, 69.89 22.52, 70 26.25 M70 26.25 C71.61 32.75, 65.51 33.43, 61.25 35 M70 26.25 C70.18 29.84, 68.98 33.56, 61.25 35 M61.25 35 C49.52 36.34, 35.4 36.61, 8.75 35 M61.25 35 C46.17 33.98, 31.3 34.11, 8.75 35 M8.75 35 C4.42 34.66, 1.74 31.09, 0 26.25 M8.75 35 C5.01 36.19, 1.83 31.42, 0 26.25 M0 26.25 C-0.74 22.11, -0.29 17.05, 0 8.75 M0 26.25 C-0.57 22.02, -0.74 19.51, 0 8.75 M0 8.75 C1.77 2.56, 3.99 1.42, 8.75 0 M0 8.75 C1.12 3.74, 2.57 -2.01, 8.75 0" stroke="#000000" stroke-width="1" fill="none"></path></g><g transform="translate(458.1665954589844 174.3333740234375) rotate(0 16.5 12.5)"><text x="16.5" y="18" font-family="Virgil, Segoe UI Emoji" font-size="20px" fill="#000000" text-anchor="middle" style="white-space: pre;" direction="ltr">n/4</text></g><g stroke-linecap="round" transform="translate(554.3333435058594 169.83340454101562) rotate(0 35 17.5)"><path d="M8.75 0 M8.75 0 C20.27 1.34, 31.47 1.43, 61.25 0 M8.75 0 C26.47 -0.59, 45.68 -0.34, 61.25 0 M61.25 0 C66.84 -0.48, 68.46 1.17, 70 8.75 M61.25 0 C66.75 -1.59, 68.43 1.58, 70 8.75 M70 8.75 C69.83 13.4, 71.38 17.04, 70 26.25 M70 8.75 C70.49 14.33, 69.74 20.25, 70 26.25 M70 26.25 C69.11 33.96, 66.6 34.46, 61.25 35 M70 26.25 C69.22 32.09, 68 35.09, 61.25 35 M61.25 35 C48.47 34.35, 38.76 34.45, 8.75 35 M61.25 35 C40.97 34.72, 19.59 34.68, 8.75 35 M8.75 35 C3.76 33.3, 0.73 30.35, 0 26.25 M8.75 35 C0.72 34.02, -0.37 32.59, 0 26.25 M0 26.25 C0.54 21.84, -1.62 14.47, 0 8.75 M0 26.25 C0.76 21.36, -0.51 15.37, 0 8.75 M0 8.75 C1.84 3.03, 2.8 -0.96, 8.75 0 M0 8.75 C2.08 3.26, 3.2 -1.19, 8.75 0" stroke="#000000" stroke-width="1" fill="none"></path></g><g transform="translate(572.8333435058594 174.83340454101562) rotate(0 16.5 12.5)"><text x="16.5" y="18" font-family="Virgil, Segoe UI Emoji" font-size="20px" fill="#000000" text-anchor="middle" style="white-space: pre;" direction="ltr">n/4</text></g><g stroke-linecap="round" transform="translate(705.8333435058594 169.3333740234375) rotate(0 35 17.5)"><path d="M8.75 0 M8.75 0 C26.05 -0.29, 43.43 0.63, 61.25 0 M8.75 0 C28.1 0.26, 49.26 -0.65, 61.25 0 M61.25 0 C66.34 -1.16, 70.5 3.28, 70 8.75 M61.25 0 C66.05 -0.31, 68.02 5.12, 70 8.75 M70 8.75 C70.58 13.36, 68.38 18.61, 70 26.25 M70 8.75 C69.57 15.07, 70.24 20.39, 70 26.25 M70 26.25 C71.44 30.29, 68.47 35.97, 61.25 35 M70 26.25 C70.62 31.38, 67.98 34.21, 61.25 35 M61.25 35 C48.54 35.08, 31.99 35.87, 8.75 35 M61.25 35 C51.59 35.81, 40.51 34.46, 8.75 35 M8.75 35 C3.88 34.73, 1.16 32.25, 0 26.25 M8.75 35 C1.91 33.31, 0.05 30.82, 0 26.25 M0 26.25 C1.18 20.79, -0.17 20.09, 0 8.75 M0 26.25 C-0.48 19.1, 0.96 11.65, 0 8.75 M0 8.75 C1.99 3.08, 1.29 -0.63, 8.75 0 M0 8.75 C-1.51 1, 3 0.9, 8.75 0" stroke="#000000" stroke-width="1" fill="none"></path></g><g transform="translate(724.3333435058594 174.3333740234375) rotate(0 16.5 12.5)"><text x="16.5" y="18" font-family="Virgil, Segoe UI Emoji" font-size="20px" fill="#000000" text-anchor="middle" style="white-space: pre;" direction="ltr">n/4</text></g><g stroke-linecap="round"><g transform="translate(527.4999694824219 54.833343505859375) rotate(0 -63.449617926897474 17.319722484620343)"><path d="M-0.64 0.95 C-21.8 6.45, -106.26 27.72, -127.29 32.92 M1.22 0.4 C-20.05 6.08, -106.72 28.83, -128.12 34.24" stroke="#000000" stroke-width="1" fill="none"></path></g></g><mask></mask><g stroke-linecap="round"><g transform="translate(545.8334045410156 56.500030517578125) rotate(0 51.30208411738272 11.079110090890936)"><path d="M-1.1 0.32 C16.11 3.86, 86.12 17.8, 103.71 21.35 M0.52 -0.56 C17.57 3.15, 85.67 18.81, 102.95 22.72" stroke="#000000" stroke-width="1" fill="none"></path></g></g><mask></mask><g stroke-linecap="round"><g transform="translate(394.1667175292969 124.00003051757812) rotate(0 -45.469669442595944 24.833217013911394)"><path d="M-0.63 0.58 C-15.8 8.96, -76.41 41.8, -91.38 49.83 M1.24 -0.17 C-14.03 7.9, -76.88 39.72, -92.18 48.06" stroke="#000000" stroke-width="1" fill="none"></path></g></g><mask></mask><g stroke-linecap="round"><g transform="translate(403.3334045410156 123.16668701171875) rotate(0 31.5575267381966 23.189708726094068)"><path d="M-0.77 -0.76 C9.98 6.73, 53.34 37.96, 63.89 45.97 M1.02 1.45 C11.72 9.6, 52.57 39.83, 63.23 47.14" stroke="#000000" stroke-width="1" fill="none"></path></g></g><mask></mask><g stroke-linecap="round"><g transform="translate(641.6666564941406 115.66668701171875) rotate(0 -26.486400407706412 28.468068130840493)"><path d="M0.73 0.1 C-8.24 9.54, -43.81 48.23, -52.67 57.83 M-0.35 -0.89 C-9.6 8.75, -44.91 46.85, -53.7 56.32" stroke="#000000" stroke-width="1" fill="none"></path></g></g><mask></mask><g stroke-linecap="round"><g transform="translate(661.6666564941406 114.83335876464844) rotate(0 41.002931249136964 26.735069925338053)"><path d="M0.98 -1.11 C14.65 7.94, 68.4 45.5, 81.96 54.58 M0.04 0.92 C13.5 9.58, 67.16 43.78, 80.74 52.68" stroke="#000000" stroke-width="1" fill="none"></path></g></g><mask></mask><g stroke-linecap="round" transform="translate(186.66671752929688 302.5000305175781) rotate(0 35 17.5)"><path d="M8.75 0 M8.75 0 C29.6 2.26, 46.37 1.04, 61.25 0 M8.75 0 C23.24 -0.13, 35.11 0.85, 61.25 0 M61.25 0 C66.47 -0.91, 70.18 2.02, 70 8.75 M61.25 0 C67.16 -0.17, 72.23 1.41, 70 8.75 M70 8.75 C68.99 14.8, 68.47 19.37, 70 26.25 M70 8.75 C70.5 14.21, 69.22 17.61, 70 26.25 M70 26.25 C70.18 32.77, 66.92 35.75, 61.25 35 M70 26.25 C68.14 31.63, 67.71 32.91, 61.25 35 M61.25 35 C45.45 33.2, 31.63 35.76, 8.75 35 M61.25 35 C48.89 35.68, 35.96 34.44, 8.75 35 M8.75 35 C1.21 34.03, 1.92 31.35, 0 26.25 M8.75 35 C2.51 33.5, -0.59 30.29, 0 26.25 M0 26.25 C0.67 18.82, -0.19 12.98, 0 8.75 M0 26.25 C-0.24 21.85, -0.13 16.24, 0 8.75 M0 8.75 C-1.29 2.89, 3.95 0.76, 8.75 0 M0 8.75 C-0.83 1.06, 0.7 -1.4, 8.75 0" stroke="#000000" stroke-width="1" fill="none"></path></g><g transform="translate(218.66671752929688 307.5000305175781) rotate(0 3 12.5)"><text x="3" y="18" font-family="Virgil, Segoe UI Emoji" font-size="20px" fill="#000000" text-anchor="middle" style="white-space: pre;" direction="ltr">1</text></g><g stroke-linecap="round" transform="translate(795.8331604003906 298.16668701171875) rotate(0 35 17.5)"><path d="M8.75 0 M8.75 0 C22.2 0.39, 36.32 -1.85, 61.25 0 M8.75 0 C21.49 -0.63, 32.67 -1.24, 61.25 0 M61.25 0 C65.87 -1.49, 71.71 1.48, 70 8.75 M61.25 0 C65.21 1.67, 71.21 2.9, 70 8.75 M70 8.75 C71.47 13.15, 71.6 19.01, 70 26.25 M70 8.75 C70 14.16, 70.1 20.37, 70 26.25 M70 26.25 C68.68 31.44, 68.98 34.45, 61.25 35 M70 26.25 C68.32 30.51, 67.04 35.24, 61.25 35 M61.25 35 C49.28 35.53, 38.22 33.42, 8.75 35 M61.25 35 C49.68 34.97, 36.16 34.98, 8.75 35 M8.75 35 C4.51 34.9, -0.25 32.86, 0 26.25 M8.75 35 C2.79 34.23, 1.2 30.64, 0 26.25 M0 26.25 C0.37 19.97, 1.58 14.97, 0 8.75 M0 26.25 C0.54 22.38, 0.51 17.13, 0 8.75 M0 8.75 C-1.11 2.4, 1.35 -0.83, 8.75 0 M0 8.75 C0.26 3.58, 2.5 0.16, 8.75 0" stroke="#000000" stroke-width="1" fill="none"></path></g><g transform="translate(827.8331604003906 303.16668701171875) rotate(0 3 12.5)"><text x="3" y="18" font-family="Virgil, Segoe UI Emoji" font-size="20px" fill="#000000" text-anchor="middle" style="white-space: pre;" direction="ltr">1</text></g><g stroke-linecap="round"><g transform="translate(299.9999694824219 210.66668701171875) rotate(0 -38.02720505520699 41.36039350554347)"><path d="M0.83 -0.32 C-12.14 13.41, -64 69.07, -76.89 83.04" stroke="#000000" stroke-width="1.5" fill="none" stroke-dasharray="1.5 7"></path></g></g><mask></mask><g stroke-linecap="round"><g transform="translate(737.693922584504 210.97298051789426) rotate(0 43.89739480540163 37.51002019122245)"><path d="M0.47 -0.69 C15.07 11.81, 73.1 62.9, 87.33 75.71" stroke="#000000" stroke-width="1.5" fill="none" stroke-dasharray="1.5 7"></path></g></g><mask></mask><g stroke-linecap="round"><g transform="translate(262.4999694824219 321.5000305175781) rotate(0 263.4053937487305 -2.1537847213447776)"><path d="M0.4 0.48 C88.06 -0.27, 438.78 -3.73, 526.41 -4.78" stroke="#000000" stroke-width="1.5" fill="none" stroke-dasharray="1.5 7"></path></g></g><mask></mask><g transform="translate(10 147.50003051757812) rotate(0 27 12.5)"><text x="0" y="18" font-family="Virgil, Segoe UI Emoji" font-size="20px" fill="#000000" text-anchor="start" style="white-space: pre;" direction="ltr">1+lg n</text></g><g stroke-linecap="round"><g transform="translate(38.333343505859375 137.33334350585938) rotate(0 0.8940289072692451 -56.94727370068426)"><path d="M0.41 -0.27 C0.8 -19.18, 0.87 -94.59, 1.38 -113.63" stroke="#000000" stroke-width="1.5" fill="none" stroke-dasharray="8 9"></path></g><g transform="translate(38.333343505859375 137.33334350585938) rotate(0 0.8940289072692451 -56.94727370068426)"><path d="M10.85 -87.19 C8.64 -89.91, 5 -95.86, -0.49 -115.57" stroke="#000000" stroke-width="1.5" fill="none"></path></g><g transform="translate(38.333343505859375 137.33334350585938) rotate(0 0.8940289072692451 -56.94727370068426)"><path d="M-9.67 -87.44 C-7.34 -90.18, -6.44 -96.07, -0.49 -115.57" stroke="#000000" stroke-width="1.5" fill="none"></path></g></g><mask></mask><g stroke-linecap="round"><g transform="translate(39.9393145985901 189.94730421826262) rotate(0 -0.004609841853380203 66.01039481833573)"><path d="M0.79 0.17 C0.53 22.3, -0.38 110.08, -0.8 131.85" stroke="#000000" stroke-width="1.5" fill="none" stroke-dasharray="8 9"></path></g><g transform="translate(39.9393145985901 189.94730421826262) rotate(0 -0.004609841853380203 66.01039481833573)"><path d="M-10.38 103.57 C-6.97 112.34, -5.11 125.44, 1.1 132.53" stroke="#000000" stroke-width="1.5" fill="none"></path></g><g transform="translate(39.9393145985901 189.94730421826262) rotate(0 -0.004609841853380203 66.01039481833573)"><path d="M10.14 103.86 C6.06 112.66, 0.42 125.65, 1.1 132.53" stroke="#000000" stroke-width="1.5" fill="none"></path></g></g><mask></mask><g stroke-linecap="round"><g transform="translate(616.6666564941406 27.333343505859375) rotate(0 186.43003106787802 -0.4613502927123818)"><path d="M-0.14 0.1 C62.21 -0.08, 310.76 -0.86, 373 -1.02" stroke="#000000" stroke-width="2.5" fill="none" stroke-dasharray="8 10"></path></g></g><mask></mask><g transform="translate(1015.8334655761719 10) rotate(0 5 12.5)"><text x="0" y="18" font-family="Virgil, Segoe UI Emoji" font-size="20px" fill="#000000" text-anchor="start" style="white-space: pre;" direction="ltr">n</text></g><g stroke-linecap="round"><g transform="translate(693.1534345082938 99.6280830807982) rotate(0 145.45604818537822 -1.2274518676101707)"><path d="M-0.88 -0.15 C47.68 -0.61, 243.2 -1.87, 291.79 -2.31" stroke="#000000" stroke-width="2.5" fill="none" stroke-dasharray="8 10"></path></g></g><mask></mask><g transform="translate(1015.3333435058594 83.16670227050781) rotate(0 5 12.5)"><text x="0" y="18" font-family="Virgil, Segoe UI Emoji" font-size="20px" fill="#000000" text-anchor="start" style="white-space: pre;" direction="ltr">n</text></g><g stroke-linecap="round"><g transform="translate(783.0439212970434 186.89415413811776) rotate(0 101.34358075186594 -1.3916776113211426)"><path d="M-0.67 0.39 C33.31 -0.15, 169.4 -2.87, 203.36 -3.17" stroke="#000000" stroke-width="2.5" fill="none" stroke-dasharray="8 10"></path></g></g><mask></mask><g transform="translate(1019.1664733886719 168.16671752929688) rotate(0 5 12.5)"><text x="0" y="18" font-family="Virgil, Segoe UI Emoji" font-size="20px" fill="#000000" text-anchor="start" style="white-space: pre;" direction="ltr">n</text></g><g stroke-linecap="round"><g transform="translate(874.1563887305558 311.22505163475853) rotate(0 60.029593832045634 -0.5103345490699667)"><path d="M0.52 -0.06 C20.45 -0.04, 99.49 -0.94, 119.54 -0.96" stroke="#000000" stroke-width="2.5" fill="none" stroke-dasharray="8 10"></path></g></g><mask></mask><g transform="translate(1023.3333435058594 296.6666564941406) rotate(0 5 12.5)"><text x="0" y="18" font-family="Virgil, Segoe UI Emoji" font-size="20px" fill="#000000" text-anchor="start" style="white-space: pre;" direction="ltr">n</text></g><g transform="translate(292.4999694824219 374.1665954589844) rotate(0 152.5 63.5)"><text x="0" y="30.333333333333336" font-family="Virgil, Segoe UI Emoji" font-size="33.88888888888889px" fill="#000000" text-anchor="start" style="white-space: pre;" direction="ltr">T(n) = (1 + lg n) n</text><text x="0" y="72.66666666666667" font-family="Virgil, Segoe UI Emoji" font-size="33.88888888888889px" fill="#000000" text-anchor="start" style="white-space: pre;" direction="ltr">     = n + n lg n</text><text x="0" y="115" font-family="Virgil, Segoe UI Emoji" font-size="33.88888888888889px" fill="#000000" text-anchor="start" style="white-space: pre;" direction="ltr">     =&gt; O(n lg n)</text></g><g transform="translate(303.3333435058594 523.3333435058594) rotate(0 216 37.5)"><text x="0" y="18" font-family="Virgil, Segoe UI Emoji" font-size="20px" fill="#000000" text-anchor="start" style="white-space: pre;" direction="ltr">Where, </text><text x="0" y="43" font-family="Virgil, Segoe UI Emoji" font-size="20px" fill="#000000" text-anchor="start" style="white-space: pre;" direction="ltr">    1 + lg n is the height of the tree</text><text x="0" y="68" font-family="Virgil, Segoe UI Emoji" font-size="20px" fill="#000000" text-anchor="start" style="white-space: pre;" direction="ltr">    n is the total work  done on each level</text></g></svg>